# xmcd
#
# Track frame offsets: 
#        150
#        2492
#        13267
#        15966
#        35332
#        36748
#        38718
#        55000
#        71485
#        88260
#        105132
#        121487
#        123048
#        136703
#        147998
#        159130
#        171293
#        178811
#        186845
#        190371
#        204463
#        209782
#        218434
#        222613
#        225214
#        235172
#        248641
#        253582
#        256252
#        261169
#        277260
#        290913
#        303671
#        304752
#        307686
#        308037
#        312055
#        313760
#        315317
#        315803
#        329828
#        336881
#        338349
#        342550
#
# Disc length: 4744 seconds
#
# Revision: 0
# Processed by: cddbd v1.5.2PL0 Copyright (c) Steve Scherf et al.
# Submitted via: ExactAudioCopy v0.95b3
#
DISCID=7612862c
DTITLE=Elvis Presley  - American Sound - Disc 01 - PC 81  
DYEAR=1900
DGENRE=
TTITLE0=Long Black Limousine - take 1 rehearsal and False Start
TTITLE1=Long Black Limousine - take 2 - breakdown
TTITLE2=Long Black Limousine - take 3 - False Start
TTITLE3=Long Black Limousine - take 6 - Complete
TTITLE4=Long Black Limousine - take 7 - False Start
TTITLE5=Long Black Limousine - take 8 - False Start
TTITLE6=Long Black Limousine - Master and brass and vbox
TTITLE7=Long Black Limousine - and strings RS
TTITLE8=Long Black Limousine - Quad Remix
TTITLE9=Long Black Limousine - RS Remix - 1980
TTITLE10=Long Black Limousine - RS Remix - 1987
TTITLE11=This is The Story - take 1 - False Start
TTITLE12=This is The Story - take 2 - Master
TTITLE13=This is The Story - and lvox +vbox and Strings
TTITLE14=This is The Story and brass RS
TTITLE15=Come Out, Come Out - Rehearsal
TTITLE16=Come Out, Come Out - Breakdown
TTITLE17=Come Out, Come Out - Breakdown
TTITLE18=Come Out, Come Out - take 1 - Breakdown
TTITLE19=Come Out, Come Out - take 2 - Breakdown and Rehearsal
TTITLE20=Come Out, Come Out - Breakdown
TTITLE21=Come Out, Come Out - take 1 - New Breakdown
TTITLE22=Come Out, Come Out - take 2 - New Breakdown
TTITLE23=Come Out, Come Out - Breakdown
TTITLE24=Come Out, Come Out - take 5 - Breakdown
TTITLE25=Come Out, Come Out - take 6 - Breakdown
TTITLE26=Come Out, Come Out - take 7 - 2 False Starts and Breakdown
TTITLE27=Come Out, Come Out - take 8 - Breakdown
TTITLE28=Come Out, Come Out - take 9 - Breakdown
TTITLE29=Come Out, Come Out - take 11 - 2 False Starts and Complete
TTITLE30=Come Out, Come Out - take 18 - 1 False Starts and Complete
TTITLE31=Come Out, Come Out - Jamming\\Love Is Strange
TTITLE32=Wearin' That Loved On Look - take 2 - False Start
TTITLE33=Wearin' That Loved On Look - take 3 - False Start
TTITLE34=Wearin' That Loved On Look - take 4 - False Start
TTITLE35=Wearin' That Loved On Look - take 5 - Breakdown
TTITLE36=Wearin' That Loved On Look - take 6 - False Start
TTITLE37=Wearin' That Loved On Look - take 7 - Breakdown
TTITLE38=Wearin' That Loved On Look - take 8 - False Start
TTITLE39=Wearin' That Loved On Look - take 10 - Complete
TTITLE40=Wearin' That Loved On Look - take 11 - Breakdown
TTITLE41=Wearin' That Loved On Look - take 12 - False Start
TTITLE42=Wearin' That Loved On Look - take 13 - Faded
TTITLE43=Wearin' That Loved On Look - take 14 - Complete
EXTD=
EXTT0=
EXTT1=
EXTT2=
EXTT3=
EXTT4=
EXTT5=
EXTT6=
EXTT7=
EXTT8=
EXTT9=
EXTT10=
EXTT11=
EXTT12=
EXTT13=
EXTT14=
EXTT15=
EXTT16=
EXTT17=
EXTT18=
EXTT19=
EXTT20=
EXTT21=
EXTT22=
EXTT23=
EXTT24=
EXTT25=
EXTT26=
EXTT27=
EXTT28=
EXTT29=
EXTT30=
EXTT31=
EXTT32=
EXTT33=
EXTT34=
EXTT35=
EXTT36=
EXTT37=
EXTT38=
EXTT39=
EXTT40=
EXTT41=
EXTT42=
EXTT43=
PLAYORDER=
